PathFileType	4	(x/y/z)	S04_M20_T34.trc
DataRate	CameraRate	NumFrames	NumMarkers	Units	OrigDataRate	OrigDataStartFrame	OrigNumFrames
240	240	7	51	mm	240	402	535
Frame#	Time	Sternum			R.Acromium			L.Acromium			Top.Head			R.ASIS			L.ASIS			R.PSIS			L.PSIS			R.Great.Tro			L.Great.Tro			R.Iliac.Crest			L.Iliac.Crest			V.Sacral			R.Thigh.Upper.Post			R.Thigh.Lower.Ant			R.Thigh.Lower.Post			R.Thigh.Upper.Ant			R.Knee.Lat			R.Knee.Med			R.Shank.Upper.Post			R.Shank.Lower.Ant			R.Shank.Lower.Post			R.Shank.Upper.Ant			R.Ankle.Lat			R.Ankle.Med			R.Heel.Upper			R.Heel.Med			R.Heel.Lat			R.Toe.Lat			R.Toe.Med			R.Toe.Tip			L.Thigh.Upper.Post			L.Thigh.Lower.Ant			L.Thigh.Lower.Post			L.Thigh.Upper.Ant			L.Knee.Lat			L.Knee.Med			L.Shank.Upper.Post			L.Shank.Lower.Ant			L.Shank.Lower.Post			L.Shank.Upper.Ant			L.Ankle.Lat			L.Ankle.Med			L.Heel.Upper			L.Heel.Med			L.Heel.Lat			L.Toe.Lat			L.Toe.Med			L.Toe.Tip			Cervical.Spine			Back			
		X1	Y1	Z1	X2	Y2	Z2	X3	Y3	Z3	X4	Y4	Z4	X5	Y5	Z5	X6	Y6	Z6	X7	Y7	Z7	X8	Y8	Z8	X9	Y9	Z9	X10	Y10	Z10	X11	Y11	Z11	X12	Y12	Z12	X13	Y13	Z13	X14	Y14	Z14	X15	Y15	Z15	X16	Y16	Z16	X17	Y17	Z17	X18	Y18	Z18	X19	Y19	Z19	X20	Y20	Z20	X21	Y21	Z21	X22	Y22	Z22	X23	Y23	Z23	X24	Y24	Z24	X25	Y25	Z25	X26	Y26	Z26	X27	Y27	Z27	X28	Y28	Z28	X29	Y29	Z29	X30	Y30	Z30	X31	Y31	Z31	X32	Y32	Z32	X33	Y33	Z33	X34	Y34	Z34	X35	Y35	Z35	X36	Y36	Z36	X37	Y37	Z37	X38	Y38	Z38	X39	Y39	Z39	X40	Y40	Z40	X41	Y41	Z41	X42	Y42	Z42	X43	Y43	Z43	X44	Y44	Z44	X45	Y45	Z45	X46	Y46	Z46	X47	Y47	Z47	X48	Y48	Z48	X49	Y49	Z49	X50	Y50	Z50	X51	Y51	Z51	

402	1.6708	1362.3	1269	248.07	1235.6	1499.5	421.92	1220	1479.4	70.947	1241.8	1821.3	232.39	1328.6	975.2	393.65	1347.9	1003.3	141.12	1122.8	1024.8	277.55	1136.2	1031.8	196.96	1231	898.1	444.79	1239.3	921.37	64.401	1244.3	1073.9	429.37	1245.5	1080.8	86.149	1107.8	986.75	234	1238.3	635.24	439.8	1318.5	554.18	417.77	1241.1	544.7	427.94	1322	664.53	433.8	1254.4	480.29	423.49	1248.2	476.72	286.12	1036.9	405.31	410.66	1012.2	302.92	376.61	979.92	365.55	396.7	1067.4	346.59	399.39	891.11	293.34	379.34	920.64	273.21	293.28	840.11	328.07	313.95	819.63	304.98	283	810.19	312.8	347.8	877.55	163.19	414.29	907.38	124.74	303.55	950.45	83.856	357.93	1281.4	677.23	83.611	1385.6	607.75	98.224	1313.4	595.8	102.04	1348.4	688.03	76.462	1375.1	515.74	116.43	1375.7	508.11	242.68	1297	331.22	120.03	1369.6	247.45	130.01	1305.4	254.03	130.97	1361.6	323.14	118.65	1350.2	98.662	149.99	1350.7	112.88	244.91	1273.5	70.327	199.97	1279.5	47.495	235.23	1275.7	41.484	173.37	1458.8	41.623	134.22	1490.7	53.853	250.8	1547.4	63.02	201.97	1177.3	1540	251.67	1102.3	1281	236.15
403	1.675	1367.2	1270.1	247.47	1240.5	1500.4	421.44	1224.8	1480.5	70.485	1246.8	1822.4	232.17	1334.2	976.33	392.8	1352.6	1004.2	140.17	1128	1025.7	277.52	1141.1	1032.7	196.9	1237.1	899.12	444.36	1243.5	922.15	64.015	1249.8	1075	428.84	1250.3	1081.8	85.635	1112.7	987.73	234.04	1247.2	636.17	439.17	1328.2	555.98	416.65	1251	545.69	427.1	1330.6	666.31	432.88	1264.8	481.47	422.38	1258.2	478.29	284.95	1047.7	405.86	409.8	1023.2	303.44	375.69	990.81	365.94	395.88	1078.4	347.25	398.4	902.24	293.35	378.59	931.61	273.59	292.48	850.68	327.78	313.46	830.26	304.58	282.58	820.97	312.25	347.4	889.78	163.14	413.48	919.49	125.07	302.55	963.09	84.526	356.73	1284.3	677.89	83.312	1387.9	607.61	97.802	1315.6	596.19	101.63	1351.4	688.13	76.13	1376.7	515.64	116.11	1377.4	508.05	242.29	1297.8	331.41	120	1370.2	247.39	129.88	1306	254.2	130.93	1362.4	323.09	118.48	1350.3	98.758	150.08	1350.9	112.95	244.96	1273.5	70.409	200.03	1279.5	47.575	235.25	1275.7	41.616	173.39	1458.8	41.591	134.19	1490.8	53.62	250.82	1547.4	62.713	201.97	1182.2	1541	251.23	1107.3	1281.9	235.66
404	1.6792	1372.1	1271.1	246.88	1245.4	1501.4	420.98	1229.6	1481.6	70.031	1251.8	1823.5	231.96	1339.8	977.46	391.95	1357.2	1005.1	139.24	1133.1	1026.7	277.49	1146	1033.6	196.84	1243.1	900.15	443.94	1247.7	922.93	63.642	1255.2	1076.1	428.32	1255.1	1082.9	85.133	1117.7	988.69	234.08	1256.2	637.13	438.54	1337.9	557.83	415.51	1260.9	546.73	426.25	1339.2	668.14	431.95	1275.2	482.71	421.26	1268.1	479.9	283.79	1058.5	406.32	408.96	1034.3	303.84	374.78	1001.7	366.2	395.08	1089.4	347.83	397.42	913.44	293.16	377.88	942.66	273.8	291.7	861.3	327.27	313.01	840.96	303.95	282.2	831.82	311.46	347.02	902.15	162.88	412.67	931.77	125.23	301.55	975.92	85.043	355.52	1287.1	678.55	83.017	1390.2	607.46	97.378	1317.8	596.59	101.22	1354.3	688.23	75.79	1378.3	515.54	115.78	1379.1	508	241.9	1298.6	331.61	119.97	1370.7	247.33	129.74	1306.5	254.37	130.89	1363.2	323.05	118.31	1350.4	98.853	150.17	1351	113.03	245	1273.6	70.488	200.1	1279.5	47.658	235.27	1275.7	41.75	173.41	1458.9	41.56	134.16	1490.8	53.401	250.83	1547.5	62.425	201.97	1187.1	1542	250.79	1112.2	1282.9	235.17
405	1.6833	1377	1272.1	246.3	1250.2	1502.3	420.52	1234.4	1482.6	69.582	1256.7	1824.5	231.77	1345.3	978.57	391.1	1361.8	1006	138.31	1138.2	1027.6	277.48	1150.8	1034.5	196.78	1249.1	901.17	443.52	1251.8	923.7	63.282	1260.6	1077.1	427.81	1259.8	1083.9	84.641	1122.6	989.64	234.12	1265.1	638.14	437.92	1347.5	559.72	414.36	1270.7	547.83	425.41	1347.8	669.99	431.01	1285.6	483.99	420.15	1278	481.54	282.63	1069.2	406.68	408.14	1045.5	304.13	373.88	1012.6	366.33	394.3	1100.4	348.34	396.46	924.7	292.79	377.2	953.78	273.84	290.95	871.97	326.54	312.58	851.72	303.08	281.84	842.72	310.43	346.67	914.67	162.42	411.87	944.22	125.23	300.57	988.94	85.414	354.32	1289.8	679.21	82.728	1392.4	607.3	96.954	1320	596.98	100.81	1357.2	688.32	75.441	1379.9	515.45	115.44	1380.7	507.94	241.49	1299.4	331.8	119.95	1371.3	247.28	129.6	1307	254.55	130.85	1363.9	323.02	118.13	1350.5	98.946	150.25	1351.2	113.1	245.04	1273.7	70.567	200.15	1279.5	47.743	235.29	1275.8	41.885	173.43	1458.9	41.529	134.14	1490.9	53.195	250.85	1547.6	62.152	201.96	1192	1543	250.36	1117.1	1283.8	234.7
406	1.6875	1381.9	1273.1	245.74	1255.1	1503.3	420.07	1239.2	1483.7	69.141	1261.7	1825.5	231.59	1350.8	979.67	390.27	1366.4	1006.8	137.39	1143.3	1028.5	277.47	1155.6	1035.4	196.73	1255.1	902.19	443.11	1256	924.47	62.934	1266.1	1078.1	427.32	1264.6	1084.9	84.163	1127.5	990.57	234.18	1274	639.19	437.31	1357.1	561.66	413.2	1280.5	548.98	424.56	1356.3	671.89	430.07	1295.9	485.32	419.03	1287.8	483.21	281.48	1080	406.95	407.34	1056.7	304.33	372.99	1023.6	366.32	393.54	1111.4	348.77	395.5	936.01	292.23	376.54	964.97	273.71	290.21	882.68	325.6	312.19	862.54	301.98	281.5	853.68	309.16	346.34	927.32	161.79	411.09	956.82	125.06	299.6	1002.1	85.645	353.14	1292.5	679.88	82.443	1394.6	607.13	96.53	1322	597.38	100.41	1360	688.42	75.083	1381.3	515.37	115.1	1382.2	507.88	241.07	1300.1	332	119.92	1371.7	247.24	129.45	1307.5	254.74	130.81	1364.6	323	117.95	1350.6	99.036	150.33	1351.3	113.18	245.08	1273.7	70.644	200.21	1279.5	47.83	235.31	1275.8	42.022	173.45	1459	41.498	134.11	1491	53.003	250.86	1547.6	61.893	201.95	1196.9	1543.9	249.94	1122	1284.8	234.23
407	1.6917	1386.7	1274.1	245.18	1259.9	1504.2	419.62	1244	1484.7	68.705	1266.6	1826.6	231.42	1356.3	980.75	389.44	1371	1007.7	136.48	1148.4	1029.4	277.48	1160.4	1036.3	196.68	1261.1	903.2	442.71	1260.1	925.22	62.599	1271.5	1079.2	426.83	1269.4	1085.9	83.697	1132.4	991.49	234.24	1282.8	640.27	436.7	1366.6	563.64	412.03	1290.3	550.17	423.72	1364.7	673.8	429.13	1306.1	486.68	417.92	1297.6	484.9	280.34	1090.8	407.12	406.55	1068	304.41	372.12	1034.5	366.18	392.81	1122.5	349.14	394.56	947.39	291.5	375.91	976.24	273.41	289.5	893.44	324.43	311.81	873.44	300.65	281.18	864.71	307.65	346.03	940.1	160.97	410.33	969.59	124.73	298.66	1015.5	85.743	351.99	1295.1	680.54	82.165	1396.7	606.95	96.107	1324	597.77	100.02	1362.7	688.5	74.716	1382.7	515.28	114.75	1383.7	507.83	240.65	1300.7	332.19	119.9	1372.2	247.21	129.29	1307.9	254.92	130.77	1365.2	322.98	117.77	1350.7	99.125	150.4	1351.4	113.27	245.1	1273.8	70.721	200.27	1279.5	47.916	235.33	1275.8	42.16	173.46	1459	41.466	134.08	1491.1	52.823	250.87	1547.7	61.648	201.94	1201.7	1544.9	249.52	1126.9	1285.7	233.77
408	1.6958	1391.6	1275.1	244.64	1264.7	1505.1	419.19	1248.8	1485.7	68.276	1271.5	1827.5	231.25	1361.8	981.82	388.61	1375.6	1008.5	135.56	1153.4	1030.3	277.49	1165.2	1037.2	196.64	1267.1	904.2	442.32	1264.1	925.96	62.276	1276.8	1080.1	426.35	1274.1	1086.9	83.244	1137.2	992.39	234.31	1291.6	641.38	436.09	1376.1	565.65	410.85	1300.1	551.41	422.88	1373.2	675.75	428.18	1316.3	488.09	416.81	1307.3	486.6	279.21	1101.5	407.2	405.77	1079.3	304.4	371.26	1045.5	365.91	392.09	1133.6	349.43	393.63	958.82	290.6	375.31	987.58	272.94	288.8	904.25	323.05	311.45	884.41	299.08	280.86	875.8	305.92	345.72	953.01	160	409.6	982.51	124.24	297.75	1029	85.716	350.88	1297.7	681.21	81.893	1398.7	606.77	95.684	1326	598.18	99.63	1365.3	688.59	74.34	1384.1	515.21	114.4	1385.1	507.77	240.22	1301.4	332.4	119.88	1372.6	247.18	129.13	1308.3	255.11	130.73	1365.8	322.97	117.58	1350.8	99.21	150.46	1351.6	113.35	245.13	1273.8	70.798	200.33	1279.6	48.003	235.35	1275.9	42.298	173.47	1459	41.433	134.06	1491.1	52.655	250.87	1547.7	61.415	201.93	1206.6	1545.8	249.11	1131.8	1286.5	233.32
